STARTFONT 2.1
COMMENT Generated by gen_bdf_from_ttf.py at 2026-03-14T07:44:30Z
COMMENT Source font: FreeMono.ttf
FONT -Custom-FreeMono10x24-Medium-R-Normal--24-0-0-0-M-10-ISO10646-1
SIZE 24 75 75
FONTBOUNDINGBOX 10 24 0 0
STARTPROPERTIES 4
FONT_ASCENT 18
FONT_DESCENT 6
PIXEL_SIZE 24
POINT_SIZE 240
ENDPROPERTIES
CHARS 95
STARTCHAR U+0020
ENCODING 32
SWIDTH 500 0
DWIDTH 10 0
BBX 10 24 0 0
BITMAP
0000
0000
0000
0000
0000
0000
0000
0000
0000
0000
0000
0000
0000
0000
0000
0000
0000
0000
0000
0000
0000
0000
0000
0000
ENDCHAR
STARTCHAR U+0021
ENCODING 33
SWIDTH 500 0
DWIDTH 10 0
BBX 10 24 0 0
BITMAP
0000
0000
0000
0000
0000
0400
0400
0400
0400
0400
0400
0400
0400
0000
0000
0600
0600
0000
0000
0000
0000
0000
0000
0000
ENDCHAR
STARTCHAR U+0022
ENCODING 34
SWIDTH 500 0
DWIDTH 10 0
BBX 10 24 0 0
BITMAP
0000
0000
0000
0000
0000
0000
1F80
0900
0900
0900
0900
0900
0000
0000
0000
0000
0000
0000
0000
0000
0000
0000
0000
0000
ENDCHAR
STARTCHAR U+0023
ENCODING 35
SWIDTH 500 0
DWIDTH 10 0
BBX 10 24 0 0
BITMAP
0000
0000
0000
0000
0000
0500
0500
0900
0900
3F80
0900
0900
3F80
0A00
0A00
0A00
0A00
0000
0000
0000
0000
0000
0000
0000
ENDCHAR
STARTCHAR U+0024
ENCODING 36
SWIDTH 500 0
DWIDTH 10 0
BBX 10 24 0 0
BITMAP
0000
0000
0000
0000
0000
0200
0780
1880
1080
1000
1800
0F00
00C0
0040
2040
30C0
2F80
0200
0200
0000
0000
0000
0000
0000
ENDCHAR
STARTCHAR U+0025
ENCODING 37
SWIDTH 500 0
DWIDTH 10 0
BBX 10 24 0 0
BITMAP
0000
0000
0000
0000
0000
1C00
3200
2200
3200
1C00
0040
0380
1C00
2380
0440
0440
04C0
0380
0000
0000
0000
0000
0000
0000
ENDCHAR
STARTCHAR U+0026
ENCODING 38
SWIDTH 500 0
DWIDTH 10 0
BBX 10 24 0 0
BITMAP
0000
0000
0000
0000
0000
0000
0000
0F00
1000
1000
1000
0800
1800
3480
2500
2300
3100
1F80
0000
0000
0000
0000
0000
0000
ENDCHAR
STARTCHAR U+0027
ENCODING 39
SWIDTH 500 0
DWIDTH 10 0
BBX 10 24 0 0
BITMAP
0000
0000
0000
0000
0000
0000
0E00
0400
0400
0400
0400
0400
0000
0000
0000
0000
0000
0000
0000
0000
0000
0000
0000
0000
ENDCHAR
STARTCHAR U+0028
ENCODING 40
SWIDTH 500 0
DWIDTH 10 0
BBX 10 24 0 0
BITMAP
0000
0000
0000
0000
0000
0080
0100
0100
0100
0200
0200
0200
0200
0200
0200
0100
0100
0100
0080
0000
0000
0000
0000
0000
ENDCHAR
STARTCHAR U+0029
ENCODING 41
SWIDTH 500 0
DWIDTH 10 0
BBX 10 24 0 0
BITMAP
0000
0000
0000
0000
0000
1000
0800
0800
0800
0400
0400
0400
0400
0400
0400
0800
0800
0800
1000
0000
0000
0000
0000
0000
ENDCHAR
STARTCHAR U+002A
ENCODING 42
SWIDTH 500 0
DWIDTH 10 0
BBX 10 24 0 0
BITMAP
0000
0000
0000
0000
0000
0200
0200
3240
0F80
0600
0D00
0900
0000
0000
0000
0000
0000
0000
0000
0000
0000
0000
0000
0000
ENDCHAR
STARTCHAR U+002B
ENCODING 43
SWIDTH 500 0
DWIDTH 10 0
BBX 10 24 0 0
BITMAP
0000
0000
0000
0000
0000
0000
0000
0000
0200
0200
0200
0200
1FC0
0200
0200
0200
0200
0000
0000
0000
0000
0000
0000
0000
ENDCHAR
STARTCHAR U+002C
ENCODING 44
SWIDTH 500 0
DWIDTH 10 0
BBX 10 24 0 0
BITMAP
0000
0000
0000
0000
0000
0000
0000
0000
0000
0000
0000
0000
0000
0000
0000
0E00
0C00
0C00
1800
1800
1000
0000
0000
0000
ENDCHAR
STARTCHAR U+002D
ENCODING 45
SWIDTH 500 0
DWIDTH 10 0
BBX 10 24 0 0
BITMAP
0000
0000
0000
0000
0000
0000
0000
0000
0000
0000
0000
0000
7FC0
0000
0000
0000
0000
0000
0000
0000
0000
0000
0000
0000
ENDCHAR
STARTCHAR U+002E
ENCODING 46
SWIDTH 500 0
DWIDTH 10 0
BBX 10 24 0 0
BITMAP
0000
0000
0000
0000
0000
0000
0000
0000
0000
0000
0000
0000
0000
0000
0000
0700
0700
0700
0000
0000
0000
0000
0000
0000
ENDCHAR
STARTCHAR U+002F
ENCODING 47
SWIDTH 500 0
DWIDTH 10 0
BBX 10 24 0 0
BITMAP
0000
0000
0000
0000
0040
0080
0080
0100
0100
0200
0200
0400
0400
0800
0800
1000
1000
2000
2000
0000
0000
0000
0000
0000
ENDCHAR
STARTCHAR U+0030
ENCODING 48
SWIDTH 500 0
DWIDTH 10 0
BBX 10 24 0 0
BITMAP
0000
0000
0000
0000
0000
0F00
1980
1080
2040
2040
2040
2040
2040
2040
2040
1080
1980
0F00
0000
0000
0000
0000
0000
0000
ENDCHAR
STARTCHAR U+0031
ENCODING 49
SWIDTH 500 0
DWIDTH 10 0
BBX 10 24 0 0
BITMAP
0000
0000
0000
0000
0000
0200
0600
0A00
0A00
0200
0200
0200
0200
0200
0200
0200
0200
1FC0
0000
0000
0000
0000
0000
0000
ENDCHAR
STARTCHAR U+0032
ENCODING 50
SWIDTH 500 0
DWIDTH 10 0
BBX 10 24 0 0
BITMAP
0000
0000
0000
0000
0000
0F00
1080
2040
2040
0040
0080
0100
0200
0400
0800
1000
2040
1FC0
0000
0000
0000
0000
0000
0000
ENDCHAR
STARTCHAR U+0033
ENCODING 51
SWIDTH 500 0
DWIDTH 10 0
BBX 10 24 0 0
BITMAP
0000
0000
0000
0000
0000
1E00
2180
0080
0080
0180
0600
0100
0080
0040
0040
0040
3080
1F00
0000
0000
0000
0000
0000
0000
ENDCHAR
STARTCHAR U+0034
ENCODING 52
SWIDTH 500 0
DWIDTH 10 0
BBX 10 24 0 0
BITMAP
0000
0000
0000
0000
0000
0180
0280
0280
0480
0880
0880
1080
1080
1FC0
0080
0080
0080
01C0
0000
0000
0000
0000
0000
0000
ENDCHAR
STARTCHAR U+0035
ENCODING 53
SWIDTH 500 0
DWIDTH 10 0
BBX 10 24 0 0
BITMAP
0000
0000
0000
0000
0000
1F80
1000
1000
1000
1000
1F00
1080
0040
0040
0040
0040
3080
0F00
0000
0000
0000
0000
0000
0000
ENDCHAR
STARTCHAR U+0036
ENCODING 54
SWIDTH 500 0
DWIDTH 10 0
BBX 10 24 0 0
BITMAP
0000
0000
0000
0000
0000
03C0
0600
0800
0800
1000
1700
1480
1840
1040
1040
0840
0880
0700
0000
0000
0000
0000
0000
0000
ENDCHAR
STARTCHAR U+0037
ENCODING 55
SWIDTH 500 0
DWIDTH 10 0
BBX 10 24 0 0
BITMAP
0000
0000
0000
0000
0000
3FC0
2040
0040
0080
0080
0080
0100
0100
0100
0200
0200
0200
0200
0000
0000
0000
0000
0000
0000
ENDCHAR
STARTCHAR U+0038
ENCODING 56
SWIDTH 500 0
DWIDTH 10 0
BBX 10 24 0 0
BITMAP
0000
0000
0000
0000
0000
0F00
1080
2040
2040
2040
1080
0F00
1080
2040
2040
2040
1080
0F00
0000
0000
0000
0000
0000
0000
ENDCHAR
STARTCHAR U+0039
ENCODING 57
SWIDTH 500 0
DWIDTH 10 0
BBX 10 24 0 0
BITMAP
0000
0000
0000
0000
0000
0700
0880
1080
1040
1040
10C0
0940
0740
0040
0080
0080
0300
1E00
0000
0000
0000
0000
0000
0000
ENDCHAR
STARTCHAR U+003A
ENCODING 58
SWIDTH 500 0
DWIDTH 10 0
BBX 10 24 0 0
BITMAP
0000
0000
0000
0000
0000
0000
0000
0000
0000
0700
0700
0700
0000
0000
0000
0700
0700
0700
0000
0000
0000
0000
0000
0000
ENDCHAR
STARTCHAR U+003B
ENCODING 59
SWIDTH 500 0
DWIDTH 10 0
BBX 10 24 0 0
BITMAP
0000
0000
0000
0000
0000
0000
0000
0000
0000
0E00
0E00
0E00
0000
0000
0000
0E00
0C00
0C00
1800
1000
1000
0000
0000
0000
ENDCHAR
STARTCHAR U+003C
ENCODING 60
SWIDTH 500 0
DWIDTH 10 0
BBX 10 24 0 0
BITMAP
0000
0000
0000
0000
0000
0000
0000
00C0
0100
0600
1800
2000
1800
0600
0180
0040
0000
0000
0000
0000
0000
0000
0000
0000
ENDCHAR
STARTCHAR U+003D
ENCODING 61
SWIDTH 500 0
DWIDTH 10 0
BBX 10 24 0 0
BITMAP
0000
0000
0000
0000
0000
0000
0000
0000
0000
0000
7FC0
0000
0000
7FC0
0000
0000
0000
0000
0000
0000
0000
0000
0000
0000
ENDCHAR
STARTCHAR U+003E
ENCODING 62
SWIDTH 500 0
DWIDTH 10 0
BBX 10 24 0 0
BITMAP
0000
0000
0000
0000
0000
0000
0000
3000
0800
0600
0180
0040
0180
0600
1800
2000
0000
0000
0000
0000
0000
0000
0000
0000
ENDCHAR
STARTCHAR U+003F
ENCODING 63
SWIDTH 500 0
DWIDTH 10 0
BBX 10 24 0 0
BITMAP
0000
0000
0000
0000
0000
0000
0F80
10C0
1040
0040
00C0
0180
0200
0000
0000
0000
0700
0700
0000
0000
0000
0000
0000
0000
ENDCHAR
STARTCHAR U+0040
ENCODING 64
SWIDTH 500 0
DWIDTH 10 0
BBX 10 24 0 0
BITMAP
0000
0000
0000
0000
0000
0F00
1980
1080
2080
2380
2680
2480
2480
2480
23C0
2000
1000
1800
0F80
0000
0000
0000
0000
0000
ENDCHAR
STARTCHAR U+0041
ENCODING 65
SWIDTH 500 0
DWIDTH 10 0
BBX 10 24 0 0
BITMAP
0000
0000
0000
0000
0000
0000
3E00
0600
0A00
0900
1100
1080
1080
1F80
2040
2040
4040
F0C0
0000
0000
0000
0000
0000
0000
ENDCHAR
STARTCHAR U+0042
ENCODING 66
SWIDTH 500 0
DWIDTH 10 0
BBX 10 24 0 0
BITMAP
0000
0000
0000
0000
0000
0000
7F80
20C0
2040
2040
2080
3F00
20C0
2000
2000
2000
2040
7F80
0000
0000
0000
0000
0000
0000
ENDCHAR
STARTCHAR U+0043
ENCODING 67
SWIDTH 500 0
DWIDTH 10 0
BBX 10 24 0 0
BITMAP
0000
0000
0000
0000
0000
0000
0F80
1040
2000
4000
4000
4000
4000
4000
4000
2000
1800
0FC0
0000
0000
0000
0000
0000
0000
ENDCHAR
STARTCHAR U+0044
ENCODING 68
SWIDTH 500 0
DWIDTH 10 0
BBX 10 24 0 0
BITMAP
0000
0000
0000
0000
0000
0000
7F00
20C0
2040
2000
2000
2000
2000
2000
2000
2040
20C0
7F00
0000
0000
0000
0000
0000
0000
ENDCHAR
STARTCHAR U+0045
ENCODING 69
SWIDTH 500 0
DWIDTH 10 0
BBX 10 24 0 0
BITMAP
0000
0000
0000
0000
0000
0000
7FC0
2040
2040
2000
2200
3E00
2200
2000
2000
2000
2000
7FC0
0000
0000
0000
0000
0000
0000
ENDCHAR
STARTCHAR U+0046
ENCODING 70
SWIDTH 500 0
DWIDTH 10 0
BBX 10 24 0 0
BITMAP
0000
0000
0000
0000
0000
0000
7FC0
2000
2000
2000
2200
3E00
2200
2000
2000
2000
2000
7C00
0000
0000
0000
0000
0000
0000
ENDCHAR
STARTCHAR U+0047
ENCODING 71
SWIDTH 500 0
DWIDTH 10 0
BBX 10 24 0 0
BITMAP
0000
0000
0000
0000
0000
0000
0F80
1040
2000
4000
4000
4000
4000
41C0
4000
2000
1000
0FC0
0000
0000
0000
0000
0000
0000
ENDCHAR
STARTCHAR U+0048
ENCODING 72
SWIDTH 500 0
DWIDTH 10 0
BBX 10 24 0 0
BITMAP
0000
0000
0000
0000
0000
0000
38C0
1040
1040
1040
1040
1FC0
1040
1040
1040
1040
1040
38C0
0000
0000
0000
0000
0000
0000
ENDCHAR
STARTCHAR U+0049
ENCODING 73
SWIDTH 500 0
DWIDTH 10 0
BBX 10 24 0 0
BITMAP
0000
0000
0000
0000
0000
0000
1FC0
0200
0200
0200
0200
0200
0200
0200
0200
0200
0200
1FC0
0000
0000
0000
0000
0000
0000
ENDCHAR
STARTCHAR U+004A
ENCODING 74
SWIDTH 500 0
DWIDTH 10 0
BBX 10 24 0 0
BITMAP
0000
0000
0000
0000
0000
0000
07C0
0080
0080
0080
0080
0080
0080
2080
2080
2080
3100
0E00
0000
0000
0000
0000
0000
0000
ENDCHAR
STARTCHAR U+004B
ENCODING 75
SWIDTH 500 0
DWIDTH 10 0
BBX 10 24 0 0
BITMAP
0000
0000
0000
0000
0000
0000
71C0
2080
2100
2200
2400
2C00
3200
2100
2100
2080
2080
7040
0000
0000
0000
0000
0000
0000
ENDCHAR
STARTCHAR U+004C
ENCODING 76
SWIDTH 500 0
DWIDTH 10 0
BBX 10 24 0 0
BITMAP
0000
0000
0000
0000
0000
0000
3E00
0800
0800
0800
0800
0800
0800
0800
0800
0800
0800
3FC0
0000
0000
0000
0000
0000
0000
ENDCHAR
STARTCHAR U+004D
ENCODING 77
SWIDTH 500 0
DWIDTH 10 0
BBX 10 24 0 0
BITMAP
0000
0000
0000
0000
0000
0000
E040
6040
5080
5080
4900
4900
4600
4600
4000
4000
4000
E040
0000
0000
0000
0000
0000
0000
ENDCHAR
STARTCHAR U+004E
ENCODING 78
SWIDTH 500 0
DWIDTH 10 0
BBX 10 24 0 0
BITMAP
0000
0000
0000
0000
0000
0000
60C0
3040
2840
2840
2440
2440
2240
2240
2140
2140
20C0
7040
0000
0000
0000
0000
0000
0000
ENDCHAR
STARTCHAR U+004F
ENCODING 79
SWIDTH 500 0
DWIDTH 10 0
BBX 10 24 0 0
BITMAP
0000
0000
0000
0000
0000
0000
0F00
1080
2040
6040
4000
4000
4000
4000
6040
2040
1080
0F00
0000
0000
0000
0000
0000
0000
ENDCHAR
STARTCHAR U+0050
ENCODING 80
SWIDTH 500 0
DWIDTH 10 0
BBX 10 24 0 0
BITMAP
0000
0000
0000
0000
0000
0000
7F00
2080
2040
2040
2040
2080
3F00
2000
2000
2000
2000
7C00
0000
0000
0000
0000
0000
0000
ENDCHAR
STARTCHAR U+0051
ENCODING 81
SWIDTH 500 0
DWIDTH 10 0
BBX 10 24 0 0
BITMAP
0000
0000
0000
0000
0000
0000
0F00
1080
2040
6040
4000
4000
4000
4000
6040
2040
1080
0F00
0400
1F00
10C0
0000
0000
0000
ENDCHAR
STARTCHAR U+0052
ENCODING 82
SWIDTH 500 0
DWIDTH 10 0
BBX 10 24 0 0
BITMAP
0000
0000
0000
0000
0000
0000
7F00
2080
2040
2040
2040
2080
3F00
2100
2180
2080
2040
7040
0000
0000
0000
0000
0000
0000
ENDCHAR
STARTCHAR U+0053
ENCODING 83
SWIDTH 500 0
DWIDTH 10 0
BBX 10 24 0 0
BITMAP
0000
0000
0000
0000
0000
0000
0740
08C0
1040
1000
1000
0E00
0180
0040
2040
2040
3080
2F00
0000
0000
0000
0000
0000
0000
ENDCHAR
STARTCHAR U+0054
ENCODING 84
SWIDTH 500 0
DWIDTH 10 0
BBX 10 24 0 0
BITMAP
0000
0000
0000
0000
0000
0000
7FC0
4200
4200
0200
0200
0200
0200
0200
0200
0200
0200
0F80
0000
0000
0000
0000
0000
0000
ENDCHAR
STARTCHAR U+0055
ENCODING 85
SWIDTH 500 0
DWIDTH 10 0
BBX 10 24 0 0
BITMAP
0000
0000
0000
0000
0000
0000
70C0
2040
2040
2040
2040
2040
2040
2040
2040
2040
1080
0F00
0000
0000
0000
0000
0000
0000
ENDCHAR
STARTCHAR U+0056
ENCODING 86
SWIDTH 500 0
DWIDTH 10 0
BBX 10 24 0 0
BITMAP
0000
0000
0000
0000
0000
0000
F0C0
4040
2040
2040
2080
1080
1080
0900
0900
0A00
0600
0600
0000
0000
0000
0000
0000
0000
ENDCHAR
STARTCHAR U+0057
ENCODING 87
SWIDTH 500 0
DWIDTH 10 0
BBX 10 24 0 0
BITMAP
0000
0000
0000
0000
0000
0000
F8C0
4000
4000
4600
2640
2640
2940
2940
2940
30C0
30C0
30C0
0000
0000
0000
0000
0000
0000
ENDCHAR
STARTCHAR U+0058
ENCODING 88
SWIDTH 500 0
DWIDTH 10 0
BBX 10 24 0 0
BITMAP
0000
0000
0000
0000
0000
0000
70C0
2040
1080
0900
0F00
0600
0600
0900
0900
1080
2040
71C0
0000
0000
0000
0000
0000
0000
ENDCHAR
STARTCHAR U+0059
ENCODING 89
SWIDTH 500 0
DWIDTH 10 0
BBX 10 24 0 0
BITMAP
0000
0000
0000
0000
0000
0000
78C0
1040
1040
0880
0500
0500
0200
0200
0200
0200
0200
0F80
0000
0000
0000
0000
0000
0000
ENDCHAR
STARTCHAR U+005A
ENCODING 90
SWIDTH 500 0
DWIDTH 10 0
BBX 10 24 0 0
BITMAP
0000
0000
0000
0000
0000
0000
3F00
2100
2100
0200
0200
0400
0800
0800
1040
1040
2040
1FC0
0000
0000
0000
0000
0000
0000
ENDCHAR
STARTCHAR U+005B
ENCODING 91
SWIDTH 500 0
DWIDTH 10 0
BBX 10 24 0 0
BITMAP
0000
0000
0000
0000
0000
0380
0200
0200
0200
0200
0200
0200
0200
0200
0200
0200
0200
0200
0200
0380
0000
0000
0000
0000
ENDCHAR
STARTCHAR U+005C
ENCODING 92
SWIDTH 500 0
DWIDTH 10 0
BBX 10 24 0 0
BITMAP
0000
0000
0000
0000
2000
1000
1000
0800
0800
0400
0400
0200
0200
0100
0100
0080
0080
0040
0040
0000
0000
0000
0000
0000
ENDCHAR
STARTCHAR U+005D
ENCODING 93
SWIDTH 500 0
DWIDTH 10 0
BBX 10 24 0 0
BITMAP
0000
0000
0000
0000
0000
0E00
0200
0200
0200
0200
0200
0200
0200
0200
0200
0200
0200
0200
0200
0E00
0000
0000
0000
0000
ENDCHAR
STARTCHAR U+005E
ENCODING 94
SWIDTH 500 0
DWIDTH 10 0
BBX 10 24 0 0
BITMAP
0000
0000
0000
0000
0000
0000
0400
0600
0900
1080
2040
0000
0000
0000
0000
0000
0000
0000
0000
0000
0000
0000
0000
0000
ENDCHAR
STARTCHAR U+005F
ENCODING 95
SWIDTH 500 0
DWIDTH 10 0
BBX 10 24 0 0
BITMAP
0000
0000
0000
0000
0000
0000
0000
0000
0000
0000
0000
0000
0000
0000
0000
0000
0000
0000
0000
0000
FFC0
0000
0000
0000
ENDCHAR
STARTCHAR U+0060
ENCODING 96
SWIDTH 500 0
DWIDTH 10 0
BBX 10 24 0 0
BITMAP
0000
0000
0000
0000
0000
1000
0800
0400
0000
0000
0000
0000
0000
0000
0000
0000
0000
0000
0000
0000
0000
0000
0000
0000
ENDCHAR
STARTCHAR U+0061
ENCODING 97
SWIDTH 500 0
DWIDTH 10 0
BBX 10 24 0 0
BITMAP
0000
0000
0000
0000
0000
0000
0000
0000
0000
3F00
0080
0080
1F80
2080
4080
4080
6380
3CC0
0000
0000
0000
0000
0000
0000
ENDCHAR
STARTCHAR U+0062
ENCODING 98
SWIDTH 500 0
DWIDTH 10 0
BBX 10 24 0 0
BITMAP
0000
0000
0000
0000
0000
6000
2000
2000
2000
2780
28C0
3040
2000
2000
2000
3040
38C0
6780
0000
0000
0000
0000
0000
0000
ENDCHAR
STARTCHAR U+0063
ENCODING 99
SWIDTH 500 0
DWIDTH 10 0
BBX 10 24 0 0
BITMAP
0000
0000
0000
0000
0000
0000
0000
0000
0000
0F40
10C0
3040
2000
2000
2000
3000
1040
0F80
0000
0000
0000
0000
0000
0000
ENDCHAR
STARTCHAR U+0064
ENCODING 100
SWIDTH 500 0
DWIDTH 10 0
BBX 10 24 0 0
BITMAP
0000
0000
0000
0000
0000
00C0
0040
0040
0040
1E40
3140
20C0
4040
4040
4040
60C0
31C0
1E40
0000
0000
0000
0000
0000
0000
ENDCHAR
STARTCHAR U+0065
ENCODING 101
SWIDTH 500 0
DWIDTH 10 0
BBX 10 24 0 0
BITMAP
0000
0000
0000
0000
0000
0000
0000
0000
0000
0F00
3080
2040
4040
7FC0
4000
2000
3040
0F80
0000
0000
0000
0000
0000
0000
ENDCHAR
STARTCHAR U+0066
ENCODING 102
SWIDTH 500 0
DWIDTH 10 0
BBX 10 24 0 0
BITMAP
0000
0000
0000
0000
0000
03C0
0600
0400
0400
1FC0
0400
0400
0400
0400
0400
0400
0400
1F80
0000
0000
0000
0000
0000
0000
ENDCHAR
STARTCHAR U+0067
ENCODING 103
SWIDTH 500 0
DWIDTH 10 0
BBX 10 24 0 0
BITMAP
0000
0000
0000
0000
0000
0000
0000
0000
0000
1E40
31C0
60C0
4040
4040
4040
20C0
3140
1E40
0040
0040
0080
0F00
0000
0000
ENDCHAR
STARTCHAR U+0068
ENCODING 104
SWIDTH 500 0
DWIDTH 10 0
BBX 10 24 0 0
BITMAP
0000
0000
0000
0000
0000
6000
2000
2000
2000
2F80
30C0
2040
2040
2040
2040
2040
2040
70C0
0000
0000
0000
0000
0000
0000
ENDCHAR
STARTCHAR U+0069
ENCODING 105
SWIDTH 500 0
DWIDTH 10 0
BBX 10 24 0 0
BITMAP
0000
0000
0000
0000
0000
0000
0200
0200
0000
0E00
0200
0200
0200
0200
0200
0200
0200
1FC0
0000
0000
0000
0000
0000
0000
ENDCHAR
STARTCHAR U+006A
ENCODING 106
SWIDTH 500 0
DWIDTH 10 0
BBX 10 24 0 0
BITMAP
0000
0000
0000
0000
0000
0000
0100
0100
0000
1F80
0080
0080
0080
0080
0080
0080
0080
0080
0080
0080
0180
1F00
0000
0000
ENDCHAR
STARTCHAR U+006B
ENCODING 107
SWIDTH 500 0
DWIDTH 10 0
BBX 10 24 0 0
BITMAP
0000
0000
0000
0000
0000
3000
1000
1000
1000
13C0
1100
1200
1400
1C00
1200
1100
1080
31C0
0000
0000
0000
0000
0000
0000
ENDCHAR
STARTCHAR U+006C
ENCODING 108
SWIDTH 500 0
DWIDTH 10 0
BBX 10 24 0 0
BITMAP
0000
0000
0000
0000
0000
0E00
0200
0200
0200
0200
0200
0200
0200
0200
0200
0200
0200
1FC0
0000
0000
0000
0000
0000
0000
ENDCHAR
STARTCHAR U+006D
ENCODING 109
SWIDTH 500 0
DWIDTH 10 0
BBX 10 24 0 0
BITMAP
0000
0000
0000
0000
0000
0000
0000
0000
0000
DCC0
6300
4200
4200
4200
4200
4200
4200
E300
0000
0000
0000
0000
0000
0000
ENDCHAR
STARTCHAR U+006E
ENCODING 110
SWIDTH 500 0
DWIDTH 10 0
BBX 10 24 0 0
BITMAP
0000
0000
0000
0000
0000
0000
0000
0000
0000
3780
18C0
1040
1040
1040
1040
1040
1040
78C0
0000
0000
0000
0000
0000
0000
ENDCHAR
STARTCHAR U+006F
ENCODING 111
SWIDTH 500 0
DWIDTH 10 0
BBX 10 24 0 0
BITMAP
0000
0000
0000
0000
0000
0000
0000
0000
0000
0F00
30C0
2040
4000
4000
4000
2040
30C0
0F00
0000
0000
0000
0000
0000
0000
ENDCHAR
STARTCHAR U+0070
ENCODING 112
SWIDTH 500 0
DWIDTH 10 0
BBX 10 24 0 0
BITMAP
0000
0000
0000
0000
0000
0000
0000
0000
0000
6F80
38C0
3040
2000
2000
2000
3040
38C0
2780
2000
2000
2000
7800
0000
0000
ENDCHAR
STARTCHAR U+0071
ENCODING 113
SWIDTH 500 0
DWIDTH 10 0
BBX 10 24 0 0
BITMAP
0000
0000
0000
0000
0000
0000
0000
0000
0000
1F40
31C0
40C0
4040
4040
4040
60C0
31C0
1E40
0040
0040
0040
01C0
0000
0000
ENDCHAR
STARTCHAR U+0072
ENCODING 114
SWIDTH 500 0
DWIDTH 10 0
BBX 10 24 0 0
BITMAP
0000
0000
0000
0000
0000
0000
0000
0000
0000
19C0
0A00
0C00
0800
0800
0800
0800
0800
3F00
0000
0000
0000
0000
0000
0000
ENDCHAR
STARTCHAR U+0073
ENCODING 115
SWIDTH 500 0
DWIDTH 10 0
BBX 10 24 0 0
BITMAP
0000
0000
0000
0000
0000
0000
0000
0000
0000
0F40
18C0
1040
1000
0F00
00C0
2040
30C0
2F80
0000
0000
0000
0000
0000
0000
ENDCHAR
STARTCHAR U+0074
ENCODING 116
SWIDTH 500 0
DWIDTH 10 0
BBX 10 24 0 0
BITMAP
0000
0000
0000
0000
0000
0000
1000
1000
1000
3F00
1000
1000
1000
1000
1000
1000
1840
0F80
0000
0000
0000
0000
0000
0000
ENDCHAR
STARTCHAR U+0075
ENCODING 117
SWIDTH 500 0
DWIDTH 10 0
BBX 10 24 0 0
BITMAP
0000
0000
0000
0000
0000
0000
0000
0000
0000
60C0
2040
2040
2040
2040
2040
2040
31C0
1E40
0000
0000
0000
0000
0000
0000
ENDCHAR
STARTCHAR U+0076
ENCODING 118
SWIDTH 500 0
DWIDTH 10 0
BBX 10 24 0 0
BITMAP
0000
0000
0000
0000
0000
0000
0000
0000
0000
79C0
2040
1080
1080
1080
0900
0900
0600
0600
0000
0000
0000
0000
0000
0000
ENDCHAR
STARTCHAR U+0077
ENCODING 119
SWIDTH 500 0
DWIDTH 10 0
BBX 10 24 0 0
BITMAP
0000
0000
0000
0000
0000
0000
0000
0000
0000
70C0
4040
2440
2640
2640
2A40
2980
1980
1080
0000
0000
0000
0000
0000
0000
ENDCHAR
STARTCHAR U+0078
ENCODING 120
SWIDTH 500 0
DWIDTH 10 0
BBX 10 24 0 0
BITMAP
0000
0000
0000
0000
0000
0000
0000
0000
0000
79C0
1080
0900
0600
0600
0900
1080
2040
79C0
0000
0000
0000
0000
0000
0000
ENDCHAR
STARTCHAR U+0079
ENCODING 121
SWIDTH 500 0
DWIDTH 10 0
BBX 10 24 0 0
BITMAP
0000
0000
0000
0000
0000
0000
0000
0000
0000
70C0
2040
1080
1080
1080
0900
0900
0600
0600
0400
0400
0800
7E00
0000
0000
ENDCHAR
STARTCHAR U+007A
ENCODING 122
SWIDTH 500 0
DWIDTH 10 0
BBX 10 24 0 0
BITMAP
0000
0000
0000
0000
0000
0000
0000
0000
0000
3F80
2100
0100
0200
0400
0800
1000
1040
1FC0
0000
0000
0000
0000
0000
0000
ENDCHAR
STARTCHAR U+007B
ENCODING 123
SWIDTH 500 0
DWIDTH 10 0
BBX 10 24 0 0
BITMAP
0000
0000
0000
0000
0000
0100
0200
0200
0200
0200
0200
0200
0600
0C00
0200
0200
0200
0200
0200
0300
0000
0000
0000
0000
ENDCHAR
STARTCHAR U+007C
ENCODING 124
SWIDTH 500 0
DWIDTH 10 0
BBX 10 24 0 0
BITMAP
0000
0000
0000
0000
0000
0200
0200
0200
0200
0200
0200
0200
0200
0200
0200
0200
0200
0200
0200
0000
0000
0000
0000
0000
ENDCHAR
STARTCHAR U+007D
ENCODING 125
SWIDTH 500 0
DWIDTH 10 0
BBX 10 24 0 0
BITMAP
0000
0000
0000
0000
0000
0400
0200
0200
0200
0200
0200
0200
0300
0180
0200
0200
0200
0200
0200
0600
0000
0000
0000
0000
ENDCHAR
STARTCHAR U+007E
ENCODING 126
SWIDTH 500 0
DWIDTH 10 0
BBX 10 24 0 0
BITMAP
0000
0000
0000
0000
0000
0000
0000
0000
0000
0000
0000
1C00
2640
0180
0000
0000
0000
0000
0000
0000
0000
0000
0000
0000
ENDCHAR
ENDFONT
